<mxfile host="app.diagrams.net" modified="2023-04-17T02:24:29.665Z" agent="Mozilla/5.0 (Windows NT 10.0; Win64; x64) AppleWebKit/537.36 (KHTML, like Gecko) Chrome/112.0.0.0 Safari/537.36" version="21.1.8" etag="djV9R4NGd8B3Kws481Qb" type="github">
  <diagram name="第 1 页" id="i9dUgK9Eo6xNR1PZ6-C8">
    <mxGraphModel>
      <root>
        <mxCell id="0" />
        <mxCell id="1" parent="0" />
      </root>
    </mxGraphModel>
  </diagram>
</mxfile>
